<svg width="16" height="16" viewBox="0 0 16 16" fill="none" xmlns="http://www.w3.org/2000/svg">
<path d="M13.3401 1.93359H4.08761C3.95501 1.93359 3.82783 1.98627 3.73406 2.08004C3.64029 2.17381 3.58761 2.30099 3.58761 2.43359C3.58761 2.5662 3.64029 2.69338 3.73406 2.78715C3.82783 2.88092 3.95501 2.93359 4.08761 2.93359H12.3596L2.10011 13.1936C2.05052 13.2392 2.01067 13.2944 1.98295 13.3559C1.95523 13.4173 1.94022 13.4837 1.93883 13.5511C1.93743 13.6185 1.94968 13.6855 1.97482 13.748C1.99997 13.8106 2.03751 13.8674 2.08517 13.915C2.13283 13.9627 2.18964 14.0002 2.25217 14.0254C2.31471 14.0505 2.38169 14.0628 2.44908 14.0614C2.51647 14.06 2.58288 14.045 2.64432 14.0173C2.70576 13.9895 2.76097 13.9497 2.80661 13.9001L13.0666 3.64009V11.9126C13.0666 12.0452 13.1193 12.1724 13.2131 12.2661C13.3068 12.3599 13.434 12.4126 13.5666 12.4126C13.6992 12.4126 13.8264 12.3599 13.9202 12.2661C14.0139 12.1724 14.0666 12.0452 14.0666 11.9126V2.66059C14.0663 2.46795 13.9897 2.28326 13.8536 2.147C13.7174 2.01073 13.5328 1.93399 13.3401 1.93359Z" fill="black" fill-opacity="0.9"/>
</svg>
