<?xml version="1.0" encoding="UTF-8"?>
<svg id="Calque_1" data-name="Calque 1" xmlns="http://www.w3.org/2000/svg" viewBox="0 0 16 16">
  <defs>
    <style>
      .cls-1 {
        fill: rgba(255, 255, 255, .9);
        stroke-width: 0px;
      }
    </style>
  </defs>
  <path class="cls-1" d="M13.34,1.93H4.09c-.13,0-.26.05-.35.15s-.15.22-.15.35.05.26.15.35c.09.09.22.15.35.15h8.27L2.1,13.19s-.09.1-.12.16c-.03.06-.04.13-.04.2,0,.07.01.13.04.2.03.06.06.12.11.17.05.05.1.09.17.11.06.03.13.04.2.04s.13-.02.2-.04c.06-.03.12-.07.16-.12L13.07,3.64v8.27c0,.13.05.26.15.35.09.09.22.15.35.15s.26-.05.35-.15.15-.22.15-.35V2.66c0-.19-.08-.38-.21-.51-.14-.14-.32-.21-.51-.21Z"/>
</svg>